Normalized EMG Linear Envelopes
nRows=152
nColumns=4

endheader
time	 med_gas_r	  soleus_r	 tib_ant_r	
2.64819	  0.006313	  0.022852	  0.005836	
2.71976	  0.006405	  0.022032	  0.005719	
2.79133	  0.006509	  0.021254	  0.005617	
2.8629	  0.006645	  0.020176	  0.005636	
2.93448	  0.006883	  0.019611	  0.005740	
3.00605	  0.007005	  0.020106	  0.005817	
3.07762	  0.007108	  0.020565	  0.005918	
3.14919	  0.007428	  0.020296	  0.005940	
3.22077	  0.007767	  0.019662	  0.005894	
3.29234	  0.007716	  0.019151	  0.005859	
3.36391	  0.007398	  0.019202	  0.005914	
3.43548	  0.007224	  0.019559	  0.005963	
3.50706	  0.007343	  0.020301	  0.006029	
3.57863	  0.007562	  0.021211	  0.006021	
3.6502	  0.007426	  0.021320	  0.005872	
3.72177	  0.007060	  0.021159	  0.005617	
3.79335	  0.006860	  0.021105	  0.005398	
3.86492	  0.006980	  0.021394	  0.005388	
3.93649	  0.007240	  0.022147	  0.005487	
4.00806	  0.007619	  0.022873	  0.005606	
4.07964	  0.007835	  0.023883	  0.005753	
4.15121	  0.007492	  0.023949	  0.005973	
4.22278	  0.007000	  0.021815	  0.006076	
4.29435	  0.006845	  0.020352	  0.006146	
4.36593	  0.006933	  0.020537	  0.006209	
4.4375	  0.006974	  0.021296	  0.006259	
4.50907	  0.006644	  0.021990	  0.006181	
4.58065	  0.005558	  0.021821	  0.005989	
4.65222	  0.002802	  0.019992	  0.005661	
4.72379	 -0.002308	  0.017223	  0.005359	
4.79536	 -0.008074	  0.015217	  0.005326	
4.86694	 -0.007051	  0.016287	  0.006033	
4.93851	  0.017511	  0.026100	  0.008273	
5.01008	  0.089299	  0.052783	  0.012625	
5.08165	  0.221004	  0.100968	  0.018618	
5.15323	  0.381834	  0.162882	  0.024659	
5.2248	  0.521478	  0.223746	  0.029277	
5.29637	  0.616369	  0.278385	  0.032826	
5.36794	  0.669287	  0.321369	  0.035589	
5.43952	  0.686821	  0.357711	  0.037232	
5.51109	  0.695650	  0.396491	  0.038477	
5.58266	  0.703874	  0.444444	  0.040005	
5.65423	  0.692009	  0.490371	  0.041559	
5.72581	  0.662185	  0.507468	  0.042682	
5.79738	  0.638989	  0.493155	  0.044299	
5.86895	  0.637116	  0.468814	  0.045863	
5.94052	  0.656750	  0.456083	  0.046916	
6.0121	  0.691752	  0.464915	  0.047862	
6.08367	  0.725902	  0.499296	  0.049307	
6.15524	  0.740941	  0.541463	  0.052153	
6.22681	  0.737057	  0.573064	  0.055798	
6.29839	  0.730897	  0.615986	  0.059680	
6.36996	  0.731025	  0.665366	  0.063229	
6.44153	  0.742424	  0.709907	  0.065303	
6.5131	  0.767322	  0.719415	  0.066564	
6.58468	  0.787634	  0.692664	  0.064980	
6.65625	  0.770937	  0.647383	  0.061957	
6.72782	  0.725590	  0.610318	  0.060089	
6.7994	  0.686727	  0.607519	  0.059551	
6.87097	  0.661208	  0.621145	  0.058679	
6.94254	  0.638657	  0.630505	  0.057278	
7.01411	  0.631703	  0.651058	  0.056230	
7.08569	  0.659663	  0.689830	  0.055824	
7.15726	  0.701617	  0.710444	  0.055419	
7.22883	  0.710526	  0.698577	  0.054441	
7.3004	  0.680023	  0.664298	  0.052775	
7.37198	  0.650704	  0.631803	  0.051855	
7.44355	  0.630100	  0.604882	  0.052033	
7.51512	  0.612723	  0.601878	  0.053207	
7.58669	  0.588736	  0.617550	  0.054824	
7.65827	  0.574053	  0.643509	  0.054838	
7.72984	  0.571758	  0.669484	  0.052460	
7.80141	  0.580207	  0.685156	  0.049057	
7.87298	  0.591062	  0.689424	  0.047659	
7.94456	  0.597502	  0.683163	  0.049195	
8.01613	  0.588079	  0.688783	  0.051126	
8.0877	  0.570474	  0.691595	  0.051620	
8.15927	  0.568908	  0.666051	  0.051104	
8.23085	  0.584533	  0.622937	  0.050813	
8.30242	  0.606508	  0.610256	  0.050431	
8.37399	  0.647205	  0.644797	  0.050708	
8.44556	  0.693303	  0.703371	  0.051510	
8.51714	  0.712304	  0.770011	  0.051602	
8.58871	  0.714996	  0.808760	  0.052005	
8.66028	  0.714866	  0.831580	  0.053647	
8.73185	  0.702114	  0.852514	  0.055537	
8.80343	  0.681764	  0.874677	  0.054472	
8.875	  0.672214	  0.869554	  0.051080	
8.94657	  0.655670	  0.825769	  0.046959	
9.01815	  0.612900	  0.751021	  0.043077	
9.08972	  0.572398	  0.691895	  0.041097	
9.16129	  0.548967	  0.656037	  0.041543	
9.23286	  0.536807	  0.646582	  0.044874	
9.30444	  0.520605	  0.653150	  0.048755	
9.37601	  0.515944	  0.651075	  0.051779	
9.44758	  0.533866	  0.639477	  0.054876	
9.51915	  0.558184	  0.627063	  0.056859	
9.59073	  0.567645	  0.619905	  0.056246	
9.6623	  0.562213	  0.614085	  0.054590	
9.73387	  0.542171	  0.612854	  0.053399	
9.80544	  0.517830	  0.609751	  0.052389	
9.87702	  0.493134	  0.583922	  0.050876	
9.94859	  0.468892	  0.540035	  0.048362	
10.0202	  0.449553	  0.510261	  0.044536	
10.0917	  0.427327	  0.512765	  0.040817	
10.1633	  0.411517	  0.549035	  0.038420	
10.2349	  0.424110	  0.596109	  0.038041	
10.3065	  0.456011	  0.627127	  0.039131	
10.378	  0.484372	  0.635557	  0.039992	
10.4496	  0.492365	  0.612744	  0.040283	
10.5212	  0.490728	  0.570888	  0.040031	
10.5927	  0.485104	  0.540850	  0.039899	
10.6643	  0.487319	  0.534693	  0.040923	
10.7359	  0.502178	  0.531957	  0.042631	
10.8075	  0.536458	  0.537576	  0.044607	
10.879	  0.568065	  0.561760	  0.045340	
10.9506	  0.542704	  0.568599	  0.044090	
11.0222	  0.479289	  0.539724	  0.041514	
11.0937	  0.432243	  0.490884	  0.038663	
11.1653	  0.423365	  0.462149	  0.037025	
11.2369	  0.435439	  0.468141	  0.037790	
11.3085	  0.442141	  0.494097	  0.038704	
11.38	  0.416598	  0.527663	  0.037891	
11.4516	  0.354823	  0.525861	  0.035242	
11.5232	  0.272916	  0.472883	  0.031158	
11.5948	  0.202635	  0.417499	  0.026987	
11.6663	  0.162496	  0.389711	  0.023757	
11.7379	  0.146008	  0.379210	  0.021205	
11.8095	  0.139238	  0.376892	  0.019350	
11.881	  0.139332	  0.388885	  0.017968	
11.9526	  0.139650	  0.407756	  0.016786	
12.0242	  0.131510	  0.414042	  0.015363	
12.0958	  0.123665	  0.412724	  0.014115	
12.1673	  0.118595	  0.405319	  0.013366	
12.2389	  0.111714	  0.387372	  0.013081	
12.3105	  0.097949	  0.368526	  0.013073	
12.3821	  0.078422	  0.353304	  0.014329	
12.4536	  0.059010	  0.342334	  0.018558	
12.5252	  0.044660	  0.345643	  0.025449	
12.5968	  0.035205	  0.359803	  0.031414	
12.6683	  0.027386	  0.364728	  0.035429	
12.7399	  0.022260	  0.355654	  0.037813	
12.8115	  0.020468	  0.338931	  0.038267	
12.8831	  0.020257	  0.314902	  0.039946	
12.9546	  0.020043	  0.299720	  0.045144	
13.0262	  0.019223	  0.302148	  0.052092	
13.0978	  0.018945	  0.318311	  0.058838	
13.1694	  0.019873	  0.332668	  0.063850	
13.2409	  0.021946	  0.338436	  0.071054	
13.3125	  0.023627	  0.326299	  0.076496	
13.3841	  0.024400	  0.318323	  0.081472	
13.4556	  0.024175	  0.329281	  0.088279	
